<?xml version="1.0" encoding="utf-8"?>
<!-- Generator: Adobe Illustrator 23.0.1, SVG Export Plug-In . SVG Version: 6.00 Build 0)  -->
<svg version="1.1" xmlns="http://www.w3.org/2000/svg" xmlns:xlink="http://www.w3.org/1999/xlink" x="0px" y="0px"
	 viewBox="0 0 576 432" style="enable-background:new 0 0 576 432;" xml:space="preserve">
<style type="text/css">
	.st0{fill:#F9ED9B;}
</style>
<g id="Layer_2">
	<path d="M576,432H0V0h576V432z"/>
	<path class="st0" d="M396.98,244.85c-2.66-0.46-10.29-1.16-12.6-1.62c-2.31-0.46-2.2-1.16-3.58,1.85
		c-1.39,3.01-4.28,8.79-5.55,11.33c-1.27,2.54-3.01,4.86-2.54,1.27c0.46-3.58-0.23-2.54-3.58,0.69c-3.35,3.24-2.31,1.85-1.73-0.81
		c0.58-2.66-1.28-2.58-6.35,4.09c-0.04,0.06-0.08,0.09-0.13,0.15c-14.13,20.69-37.88,34.28-64.83,34.28
		c-28.79,0-53.95-15.51-67.6-38.63c-0.02-0.03-0.04-0.06-0.06-0.09c-5.48-8.11-10.06-16.03-7.77-9.52c2.29,6.51,5.18,12.54,0.6,4.94
		c-4.58-7.59-4.58-5.67-3.98-1.08c0.6,4.58-5.06-5.79-7.47-9.76c-1.35-2.24-3.39-3.06-5.97-3.42c-0.01,0-0.01,0-0.02,0
		c-0.2-0.03-0.4-0.05-0.6-0.07c-2.03,0.07,0.31,4.78,0.72,6.32c0.44,1.66-5.69,1.22-8.73,1.16c-3.04-0.06-2.65,0.11-2.76,3.09
		c-0.11,2.98,0.39,7.45,1.28,10.81c0.76,2.74,1.69,5.82,2.79,8.98c18.53,36.43,55.64,61.28,98.39,61.28
		c34.63,0,65.55-16.31,85.9-41.87l0,0c7.63-10.81,14-25.1,16.55-32.97S399.63,245.32,396.98,244.85z M299.07,311.23
		c12.85-0.4,23-3.24,23.18-2.6c0.08,0.28-2.35,1.35-6.51,2.45c-4.14,1.1-10.03,2.15-16.6,2.38c-6.57,0.24-12.51-0.39-16.72-1.19
		c-4.22-0.8-6.73-1.7-6.67-1.98C275.89,309.64,286.22,311.73,299.07,311.23z M377.46,286.08c-0.84,1.13-2.03,2.85-3.84,4.84
		c-3.48,4.08-8.96,9.7-16.84,15.26c-0.99,0.69-2,1.4-3.03,2.12c-1.07,0.66-2.17,1.34-3.29,2.02c-0.56,0.34-1.13,0.69-1.7,1.04
		c-0.59,0.32-1.19,0.64-1.79,0.97c-1.21,0.64-2.43,1.3-3.68,1.97c-5.1,2.48-10.72,4.77-16.82,6.64c-6.13,1.78-12.7,3.14-19.6,3.91
		c-6.9,0.84-14.12,0.75-21.46,0.2c-1.83-0.19-3.65-0.38-5.46-0.57c-1.8-0.25-3.57-0.61-5.34-0.91c-0.88-0.16-1.76-0.31-2.64-0.47
		c-0.86-0.21-1.72-0.43-2.58-0.64c-1.71-0.44-3.42-0.83-5.09-1.29c-3.29-1.11-6.59-2.01-9.65-3.36c-1.54-0.64-3.1-1.2-4.57-1.9
		c-1.47-0.72-2.92-1.42-4.35-2.12c-1.45-0.66-2.8-1.48-4.15-2.25c-1.34-0.79-2.69-1.52-3.97-2.32c-1.25-0.85-2.49-1.68-3.7-2.5
		c-0.61-0.41-1.21-0.82-1.81-1.22c-0.58-0.42-1.13-0.88-1.7-1.31c-1.11-0.88-2.21-1.74-3.29-2.58c-0.55-0.41-1.06-0.85-1.55-1.31
		c-0.5-0.45-0.99-0.9-1.48-1.34c-0.97-0.89-1.93-1.75-2.86-2.6c-0.87-0.91-1.72-1.8-2.56-2.67c-0.83-0.88-1.63-1.73-2.42-2.56
		c-0.73-0.89-1.43-1.75-2.12-2.59c-0.69-0.84-1.35-1.66-2-2.45c-0.63-0.8-1.16-1.64-1.72-2.42c-0.55-0.78-1.07-1.54-1.58-2.27
		c-0.51-0.73-1-1.42-1.39-2.14c-0.82-1.41-1.57-2.7-2.25-3.87c-0.71-1.14-1.19-2.24-1.63-3.17c-0.43-0.94-0.8-1.73-1.1-2.37
		c-0.58-1.29-0.85-1.98-0.79-2c0.06-0.03,0.46,0.6,1.15,1.83c0.34,0.62,0.76,1.38,1.26,2.27c0.49,0.9,1.03,1.96,1.78,3.06
		c0.71,1.12,1.51,2.37,2.38,3.74c0.41,0.7,0.92,1.37,1.45,2.07c0.52,0.71,1.06,1.44,1.63,2.2c0.57,0.75,1.12,1.56,1.76,2.34
		c0.66,0.77,1.33,1.56,2.03,2.37c0.69,0.81,1.41,1.65,2.14,2.51c0.79,0.81,1.6,1.63,2.44,2.48c0.83,0.84,1.69,1.71,2.56,2.59
		c0.93,0.82,1.89,1.66,2.86,2.51c0.49,0.43,0.98,0.86,1.47,1.3c0.49,0.45,1,0.88,1.54,1.27c1.07,0.82,2.16,1.65,3.27,2.5
		c0.56,0.42,1.1,0.86,1.68,1.27c0.59,0.39,1.19,0.78,1.79,1.18c1.2,0.79,2.42,1.6,3.66,2.42c1.27,0.77,2.6,1.48,3.92,2.24
		c1.33,0.75,2.66,1.55,4.09,2.18c1.41,0.68,2.84,1.36,4.29,2.05c1.45,0.68,2.99,1.21,4.51,1.84c3.01,1.31,6.26,2.18,9.49,3.26
		c1.64,0.45,3.32,0.83,5,1.25c0.84,0.21,1.69,0.41,2.54,0.62c0.86,0.15,1.72,0.3,2.59,0.45c1.74,0.29,3.48,0.64,5.24,0.88
		c1.78,0.19,3.56,0.37,5.36,0.56c7.2,0.53,14.3,0.64,21.08-0.16c6.78-0.73,13.25-2.03,19.29-3.73c6.01-1.8,11.56-3.99,16.61-6.36
		c1.24-0.64,2.46-1.27,3.65-1.89c0.6-0.31,1.19-0.62,1.77-0.93c0.57-0.34,1.13-0.67,1.69-1c1.11-0.66,2.21-1.31,3.28-1.94
		c1.03-0.69,2.04-1.37,3.03-2.03c7.87-5.34,13.44-10.73,17.07-14.62c1.87-1.9,3.16-3.52,4.1-4.57c0.93-1.06,1.44-1.59,1.5-1.55
		C378.7,284.32,378.29,284.93,377.46,286.08z M527.06,216.71c-7.89-0.93-22.93-0.2-31.41-0.47s-50.21-0.62-54.88-0.71
		s-8.65-1.32-11.65-1.76s-2.12-0.62,4.24-0.26c6.35,0.35,32.99,0.18,42.25-0.26c9.26-0.44-10.02-2.45-22.11-2.05
		c-10.78,0.36-31.3-2.41-38.53-7.14c-7.84-5.13-7.13-6.41-6.53-6.6c0.58-0.18,1.75,0.42,5.47,3.62c5.53,4.76,15.63,6.39,26.32,7.62
		c13.48,1.55,20.59,0.7,25.08,0.47c5.58-0.28-6.9-1.8-14.43-2.45c-7.09-0.61-24.7-1.93-33.07-16.87
		c-7.06-12.59-22.47-37.26-35.37-50.48c-0.03-0.03-0.05-0.05-0.07-0.07c-21.21-22.97-51.81-37.4-85.84-37.4
		c-43.46,0-80.93,23.73-101.14,58.36c-4.22,7.76-12.86,28.41-14.9,32.4c-2.06,4.03-4.88,10.57-11.99,13.69
		c-3.45,1.51-4.17,1.64-1.4,2.03c2.98,0.42,4.33-0.12,7.23-1.04c2.94-0.93,5.26,0.44-6.82,2.76c-12.08,2.33-27.2,2.95-32.48,3.31
		c-5.28,0.36-8.49,0.62-11.45,1.19c-2.34,0.45-2.24,0.96,9.12,1.05s20.33,0.47,23.29,0.64c2.95,0.18-5.78,0.98-16.04,0.8
		c-9.84-0.18-31.94-0.28-36.86-0.46c-4.92-0.18-4.38-0.72,0.18-1.43c4.56-0.72,12.61-1.88-2.05-1.52c-1.5,0.04-2.97,0.08-4.4,0.1
		c-3.57,0.05-12.38,0.35-13,0.36c-9.73,0.15-11.25,1.06-4.35,1.41c7.62,0.39,5.36,1.21-1.64,1.64c-6.88,0.43-7.4,0.22-16.74,0.82
		c-9.34,0.6,4.36,2.99,21.39,3.52c17.03,0.52,6.57,1.94-17.06,0.19c-17.52-1.3-20.19-3.12-21.99-4.05
		c-5.52-2.85-18.28,0.97-3.03,3.79c16.07,2.97,56.24,3.67,92.22,5.06c35.98,1.4,124.53,4.02,164.17,2.62
		c39.65-1.4,103.74-1.57,134.48-2.79s46.81-1.92,55.36-2.45c8.56-0.52-4.54-3.32-17.29-5.06s2.34-0.26,17.9,0.02
		c16.31,0.29,38.64,0.11,50.6,0.2C550.39,219.15,536.19,217.79,527.06,216.71z M260.18,122.15c3.81-1.45,8.45-2.91,13.73-4.09
		c5.27-1.2,11.17-2.03,17.39-2.39c12.47-0.72,23.77,0.94,31.65,2.97c7.91,2.03,12.48,4.2,12.37,4.48
		c-0.13,0.38-4.89-1.17-12.77-2.72c-7.86-1.55-18.92-2.89-31.11-2.18c-12.2,0.65-23.04,3.2-30.67,5.65
		c-7.64,2.44-12.19,4.54-12.37,4.18C248.27,127.76,252.56,125.08,260.18,122.15z M217.58,217.63c0-0.01,0-0.02,0-0.03
		c-10.67,0.28-20.44,0.28-28.84-0.1c-8.4-0.39-16.78-1.91-5.1-2.69c11.68-0.77,16.03-11.3,19.12-17.19
		c3.09-5.89,2.22-3.48,2.03,3.67s2.9,11.68,3.77,10.04s1.26-1.74,1.83,1.06s1.74,0.87,4.34-5.41c2.61-6.28,3.57-13.13,11.78-28.29
		c6.45-11.91,13.28-17.09,20.17-22.09c1.78-1.44,3.62-2.8,5.52-4.08c0.04-0.03,0.08-0.06,0.12-0.09l0,0.01
		c12.5-8.41,27.54-13.33,43.74-13.33c37.37,0,69.13,25.85,77.04,60.82c0,0-1.96-1.03-3.31-5.02c-6.24-18.56-21.39-34.25-40.62-44.14
		c-23.49-12.09-61.21-4.67-81.72,17.55c-9.53,10.33-14.75,20.66-17.96,37.14c-0.6,3.08-0.64,9.84-4.52,11.31
		C223.2,217.44,220.48,217.67,217.58,217.63z M373.71,217.92c-3.26,0.09-127.83,0.69-138.43,1.31c-10.6,0.61-10.14-0.08-8.45-0.46
		c1.69-0.38,5.4-1.19,5.98-8.27c1.48-24.51,18.89-46.66,40.2-56.46c27.14-12.48,58.21-4.82,78.4,17.37
		c11.16,12.27,19.32,26.54,20.03,43.03c0.06,1.04,2.4,2.17,3.1,2.86c0,0.05,0,0.11,0,0.16c0.04,0,0.09,0,0.13,0
		C374.86,217.72,374.65,217.89,373.71,217.92z M403.93,194.09c-0.06,0.08-0.37-0.01-0.86-0.34c-0.48-0.34-1.11-0.94-1.81-1.78
		c-1.38-1.69-3.05-4.35-4.76-7.79c-0.86-1.71-1.69-3.7-2.58-5.68c-0.22-0.5-0.45-1.01-0.68-1.53c-0.25-0.51-0.5-1.03-0.76-1.55
		c-0.53-1.04-1.02-2.14-1.63-3.21c-2.31-4.36-5.19-8.96-8.63-13.49c-3.44-4.53-7.09-8.55-10.63-12c-3.54-3.45-6.99-6.28-9.93-8.61
		c-5.94-4.59-9.93-7.07-9.69-7.5c0.18-0.34,4.59,1.45,11,5.67c3.17,2.14,6.86,4.87,10.62,8.3c3.75,3.43,7.6,7.53,11.15,12.22
		c3.56,4.68,6.47,9.5,8.71,14.08c0.6,1.12,1.06,2.28,1.56,3.38c0.24,0.55,0.48,1.1,0.71,1.63c0.21,0.55,0.42,1.08,0.62,1.61
		c0.83,2.14,1.48,4.03,2.19,5.77c1.41,3.47,2.72,6.2,3.73,8.01C403.28,193.09,404.06,193.9,403.93,194.09z M235.03,247.5
		c-0.21-0.47,2.13-1.55,2.33-1.09c12.3,27.39,39.95,44.22,69.87,41.34c25.91-2.49,48.36-19.41,58.67-43.15
		c0.09-0.21,1.88,0.98,1.65,1.53c-11.99,27.62-40.56,45.83-70.75,43.81C269.61,288.12,246.12,272.18,235.03,247.5z M390.4,237.31
		c-0.06,1.32,0.26,1.18,0.53-0.47c0.26-1.65,0.71-1.35,1.68-0.47c0.97,0.88,1.15,0.76-0.32,2.18s-2.32,0.88-2.41-0.35
		c-0.09-1.24-0.18-0.41-0.38,0.74c-0.21,1.15-1.29,0.82-1.59-0.5c-0.29-1.32-0.5-2.15-1,0.26c-0.5,2.41-1.68,2.65-2.12,2.65
		s-1.09-0.31-0.43-2.15c0.77-2.15,0.96-3.92,1.15-5.19c0.21-1.43,0.78-0.83,1.1,0.76c0.32,1.59,1.21,1.38,1.51,0.93
		c0.29-0.44-0.15-0.73,1.18-0.79C390.6,234.84,390.45,235.98,390.4,237.31z"/>
</g>
<g id="Layer_3">
</g>
</svg>
